PathFileType	4	(X/Y/Z)	c:/Users/goper/Files/vsCode/490R/osim_files/C07/C07_Static.trc
DataRate	CameraRate	NumFrames	NumMarkers	Units                	OrigDataRate	OrigDataStartFrame	OrigNumFrames
250.00	250.00	6	36	mm	250.0	972	1554
                Frame#	Time	LPSIS			LASIS			LTH1			LTH2			LTH3			LTH4			LLFE			LMFE			LSH1			LSH2			LSH3			LSH4			LLMAL			LMMAL			LCAL			LMTP5			LTOE			LMTP1			RPSIS			RASIS			RTH1			RTH2			RTH3			RTH4			RLFE			RMFE			RSH1			RSH2			RSH3			RSH4			RLMAL			RMMAL			RCAL			RMTP1			RTOE			RMTP5		
		X1	Y1	Z1	X2	Y2	Z2	X3	Y3	Z3	X4	Y4	Z4	X5	Y5	Z5	X6	Y6	Z6	X7	Y7	Z7	X8	Y8	Z8	X9	Y9	Z9	X10	Y10	Z10	X11	Y11	Z11	X12	Y12	Z12	X13	Y13	Z13	X14	Y14	Z14	X15	Y15	Z15	X16	Y16	Z16	X17	Y17	Z17	X18	Y18	Z18	X19	Y19	Z19	X20	Y20	Z20	X21	Y21	Z21	X22	Y22	Z22	X23	Y23	Z23	X24	Y24	Z24	X25	Y25	Z25	X26	Y26	Z26	X27	Y27	Z27	X28	Y28	Z28	X29	Y29	Z29	X30	Y30	Z30	X31	Y31	Z31	X32	Y32	Z32	X33	Y33	Z33	X34	Y34	Z34	X35	Y35	Z35	X36	Y36	Z36

972	3.88400	-398.57947	1031.12878	362.26419	-235.50082	986.49255	280.49979	-317.70486	800.11438	217.30998	-316.98569	721.71234	214.21074	-316.38626	645.47491	223.04362	-240.40848	722.52014	242.02762	-346.21286	524.55939	239.73303	-354.24112	502.93600	361.10013	-382.73102	337.86343	214.80446	-399.78900	292.79507	225.57378	-343.98593	342.09180	229.64987	-348.09509	296.48447	234.12497	-406.05215	109.40989	258.07138	-382.39587	127.12923	331.98932	-465.45135	47.13552	301.23642	-281.96967	41.12618	226.32329	-226.31996	52.76009	282.68536	-256.53766	41.54660	333.04361	-390.38647	1033.60693	462.64285	-233.56061	976.31195	533.27393	-285.57755	828.49939	593.81421	-288.77896	749.24402	595.42871	-296.37933	667.89728	589.44568	-222.47565	744.28680	553.44672	-325.49878	497.00092	555.28461	-340.27820	501.23227	443.89420	-395.82089	322.33380	578.13574	-368.37985	273.06161	580.21411	-334.77121	321.64688	571.65741	-338.69342	277.03061	569.07141	-401.85562	97.62013	540.42523	-377.91757	105.41019	461.76172	-453.56787	45.57192	498.71365	-245.08377	39.85474	464.23621	-219.03574	52.06727	511.61148	-263.86252	36.89898	573.10651
973	3.88800	-398.60785	1031.14221	362.25406	-235.55690	986.50641	280.48679	-317.77795	800.13300	217.31993	-317.02347	721.70496	214.18156	-316.39963	645.47980	223.00082	-240.46484	722.50299	242.02568	-346.23932	524.54095	239.69533	-354.27707	502.89658	361.05673	-382.80179	337.85638	214.81351	-399.76599	292.82321	225.56226	-344.03284	342.10208	229.64305	-348.09894	296.50290	234.12393	-406.07098	109.38630	258.09225	-382.37427	127.13578	331.92609	-465.45193	47.12442	301.25073	-281.94489	41.15791	226.31026	-226.32002	52.83847	282.61862	-256.45251	41.72195	332.97141	-390.44254	1033.60510	462.65869	-233.51215	976.31299	533.19971	-285.44077	829.05792	593.92975	-288.83279	749.24084	595.38068	-296.34073	667.85327	589.25537	-222.45592	744.32111	553.37830	-325.47647	497.01321	555.16553	-340.25555	501.22421	443.87927	-395.76471	322.33102	578.13672	-368.36191	273.05917	580.20648	-334.76794	321.60855	571.63489	-338.69101	277.05801	569.05975	-401.87787	97.63334	540.39539	-377.91867	105.41080	461.76120	-453.59418	45.57576	498.71185	-245.03624	39.89849	464.17978	-219.01427	52.11454	511.57346	-263.85529	36.90587	573.11969
974	3.89200	-398.68033	1031.14685	362.25000	-235.59587	986.56390	280.44662	-317.80103	800.14941	217.26773	-317.09546	721.70764	214.18645	-316.42606	645.51794	222.97420	-240.53810	722.51056	242.01125	-346.27634	524.56836	239.69499	-354.26932	502.90863	361.08490	-382.81146	337.87982	214.79263	-399.89789	292.75897	225.60310	-344.06082	342.11859	229.63495	-348.11884	296.51578	234.09267	-406.06448	109.43034	258.08185	-382.42755	127.18044	331.93854	-465.45895	47.13264	301.23254	-281.95850	41.17924	226.30653	-226.33368	52.87044	282.61487	-256.50873	41.76701	332.96069	-390.47644	1033.62732	462.67462	-233.56786	976.35999	533.18103	-285.60889	828.52570	593.70892	-288.82428	749.30322	595.34814	-296.36511	667.82184	589.28705	-222.51404	744.33630	553.38416	-325.48422	497.06879	555.20190	-340.30905	501.26483	443.87646	-395.83524	322.39609	578.13068	-368.40643	273.11017	580.18176	-334.80734	321.66443	571.65521	-338.71399	277.09152	569.06232	-401.90549	97.66557	540.41980	-377.93463	105.42456	461.76843	-453.59073	45.59810	498.70758	-245.02892	39.98127	464.16190	-219.03943	52.11794	511.59396	-263.85925	36.92444	573.08710
975	3.89600	-398.72055	1031.15198	362.22321	-235.63246	986.55127	280.41437	-317.87369	800.15082	217.26132	-317.15039	721.72333	214.15781	-316.48270	645.50482	222.95828	-240.58514	722.53662	241.97600	-346.29172	524.56433	239.66756	-354.30634	502.87936	361.04404	-382.80923	337.86694	214.78801	-399.76508	292.85385	225.48949	-344.09351	342.12228	229.61156	-348.13165	296.50250	234.09508	-406.06329	109.42774	258.09436	-382.50146	127.23199	331.92566	-465.46445	47.14300	301.24304	-281.96414	41.19651	226.27840	-226.34677	52.94307	282.53668	-256.48563	41.84539	332.85706	-390.46478	1033.62109	462.66049	-233.63568	976.33734	533.19812	-285.57843	829.16174	593.88654	-288.87433	749.29871	595.36053	-296.55139	668.02411	589.39258	-222.54573	744.34241	553.39026	-325.57349	497.14731	555.23041	-340.33856	501.24152	443.87576	-395.93234	322.43655	578.12354	-368.45685	273.13556	580.18054	-334.84512	321.68625	571.68658	-338.74051	277.09979	569.06873	-402.00287	97.72079	540.42285	-377.92480	105.43854	461.75937	-453.60956	45.62084	498.70862	-245.04654	39.99281	464.13303	-219.02017	52.13995	511.58981	-263.92480	36.93973	573.13220
976	3.90000	-398.74432	1031.13745	362.22794	-235.69206	986.54089	280.40652	-317.94037	800.17188	217.25603	-317.58926	721.62103	214.40479	-316.52203	645.50555	222.90932	-240.62373	722.52057	241.93799	-346.32300	524.54413	239.66788	-354.31274	502.86938	361.05084	-382.83292	337.87091	214.74841	-399.86743	292.83777	225.53563	-344.12814	342.12247	229.62279	-348.14560	296.55341	234.08070	-406.08563	109.40719	258.07391	-382.53540	127.25911	331.91565	-465.41495	47.09365	301.23270	-281.98279	41.22064	226.27269	-226.37782	52.94870	282.49863	-256.53415	41.85171	332.86581	-390.48929	1033.62903	462.67746	-233.70869	976.35260	533.18958	-285.68900	828.65784	593.75073	-288.95163	749.31891	595.35748	-296.56531	668.02136	589.48071	-222.61194	744.34149	553.43048	-325.60181	497.19873	555.32220	-340.32599	501.24127	443.86169	-395.95584	322.43350	578.13593	-368.50403	273.15692	580.15729	-334.87799	321.70862	571.72192	-338.78271	277.12219	569.11639	-402.01816	97.72076	540.45264	-377.90836	105.43488	461.72552	-453.58600	45.60521	498.70212	-245.05556	40.00458	464.13013	-219.06122	52.14097	511.58154	-263.92557	36.94210	573.13098
977	3.90400	-398.77115	1031.13879	362.18304	-235.70085	986.56012	280.35107	-317.97165	800.15540	217.22632	-317.64880	721.61444	214.39738	-316.55405	645.51794	222.89772	-240.67378	722.50806	241.92297	-346.40103	524.54120	239.64529	-354.35339	502.85559	361.05106	-382.83441	337.86075	214.73817	-399.93878	292.75000	225.58426	-344.12982	342.11865	229.57613	-348.18326	296.51102	234.05820	-406.08652	109.40507	258.06683	-382.47546	127.23772	331.92044	-465.43323	47.08786	301.21405	-281.94534	41.22166	226.25711	-226.35286	52.91593	282.46439	-256.51135	41.80844	332.77765	-390.55225	1033.61572	462.64728	-233.71469	976.33386	533.18292	-285.60782	829.17426	593.85889	-288.89609	749.27429	595.33984	-296.52048	667.97253	589.41034	-222.58008	744.32892	553.34937	-325.57791	497.16669	555.26166	-340.33755	501.26486	443.84094	-395.90457	322.40454	578.14545	-368.44781	273.12766	580.18811	-334.84485	321.70380	571.68201	-338.75751	277.11679	569.08411	-401.97131	97.72073	540.45422	-377.91071	105.41314	461.74719	-453.56342	45.58226	498.69897	-245.02882	39.99220	464.11807	-219.04178	52.12837	511.59122	-263.89651	36.92295	573.11700
